<?xml version="1.0" encoding="UTF-8" standalone="no"?>
<svg
   xmlns:dc="http://purl.org/dc/elements/1.1/"
   xmlns:cc="http://creativecommons.org/ns#"
   xmlns:rdf="http://www.w3.org/1999/02/22-rdf-syntax-ns#"
   xmlns:svg="http://www.w3.org/2000/svg"
   xmlns="http://www.w3.org/2000/svg"
   xmlns:sodipodi="http://sodipodi.sourceforge.net/DTD/sodipodi-0.dtd"
   xmlns:inkscape="http://www.inkscape.org/namespaces/inkscape"
   viewBox="0 0 247.36 234.38"
   id="svg2985"
   version="1.1"
   inkscape:version="0.48.2 r9819"
   width="100%"
   height="100%"
   sodipodi:docname="logo_white.svg">
  <metadata
     id="metadata3029">
    <rdf:RDF>
      <cc:Work
         rdf:about="">
        <dc:format>image/svg+xml</dc:format>
        <dc:type
           rdf:resource="http://purl.org/dc/dcmitype/StillImage" />
        <dc:title></dc:title>
      </cc:Work>
    </rdf:RDF>
  </metadata>
  <defs
     id="defs3027" />
  <sodipodi:namedview
     pagecolor="#ffffff"
     bordercolor="#666666"
     borderopacity="1"
     objecttolerance="10"
     gridtolerance="10"
     guidetolerance="10"
     inkscape:pageopacity="0"
     inkscape:pageshadow="2"
     inkscape:window-width="1280"
     inkscape:window-height="752"
     id="namedview3025"
     showgrid="false"
     inkscape:zoom="1.4239884"
     inkscape:cx="-59.532648"
     inkscape:cy="121.55324"
     inkscape:window-x="0"
     inkscape:window-y="0"
     inkscape:window-maximized="1"
     inkscape:current-layer="svg2985" />
  <g
     id="g2987"
     style="stroke:#363f44;stroke-opacity:1"
     stroke-linecap="round"
     stroke="#fff"
     fill="none">
    <g
       id="g2989"
       style="stroke:#363f44;stroke-opacity:1"
       stroke-linejoin="round"
       stroke-width="4.3">
      <path
         d="m345.62 482.44c-8.438-3.203-15.23-5.073-22.99-9.623m-4.904-3.37c-6.154-4.172-12.07-10.475-14.502-16.495-1.113-2.811-1.698-5.722-1.698-8.703 0-23.85 37.425-43.18 83.59-43.18 46.17 0 83.59 19.334 83.59 43.18-1.697 23.4-31.622 35.14-49.904 39.35m-8.304 2.01c-10.376 1.465-16.08 1.82-25.382 1.825m-8.944-.283c-8.436-.601-16.756-1.036-24.302-3.187"
         transform="translate(-257.21-393.07)"
         id="path2991"
         style="stroke:#363f44;stroke-opacity:1" />
      <path
         d="m429.56736 448.79605a42.17387 22.728432 0 1 1 -84.34774 0 42.17387 22.728432 0 1 1 84.34774 0z"
         transform="translate(-259.99-392.06)"
         id="path2993"
         style="stroke:#363f44;stroke-opacity:1" />
      <path
         d="m430.83006 571.52954a42.42641 21.718279 0 1 1 -84.85281 0 42.42641 21.718279 0 1 1 84.85281 0z"
         transform="translate(-261.09-393.53)"
         id="path2995"
         style="stroke:#363f44;stroke-opacity:1" />
      <path
         d="m324.64 549.64c7.531-4.608 14.504-7.225 22.439-9.556m8.322-2.197c8.272-1.816 16.262-2.987 24.08-3.492m9.09-.362c2.86 0 5.685.075 8.47.221 2.785.146 5.529.364 8.226.65 2.697.286 5.345.639 7.939 1.057m7.611 1.442c9.911 2.17 18.837 5.311 26.333 9.191 7.496 3.881 13.562 8.502 17.754 13.633 4.192 5.131 6.51 10.773 6.51 16.694 0 23.687-37.09 42.889-82.85 42.889-45.754 0-82.85-19.2-82.85-42.889.934-10.695 5.325-16.762 13.02-22.73"
         transform="translate(-261.09-393.89)"
         id="path2997"
         style="stroke:#363f44;stroke-opacity:1" />
      <path
         d="m322.62 553.87c-2.388-5.307-4.321-11.626-5.656-18.643-1.336-7.02-2.074-14.732-2.074-22.83 0-32.392 11.817-58.652 26.393-58.652 7.288 0 13.887 6.565 18.663 17.18 1.194 2.653 2.641 6.797 3.589 9.917m2.159 8.313c.334 1.754.348 3.072.582 5.01m.864 6.41c.352 3.818.536 7.771.536 11.82 0 2.025-.042 4.03-.126 6.01m-.378 5.857c-.168 1.921-.377 3.809-.628 5.654m-1.266 7.866c-1.063 4.738-1.07 6.382-2.736 11.424m-1.873 4.485c-.511.969-1.34 3.57-1.901 3.942-1.121.745-2.335.091-3.614-2.781"
         transform="translate(-259.99-392.06)"
         id="path2999"
         style="stroke:#363f44;stroke-opacity:1" />
      <path
         d="m321.79 554.86c-5.143-12.997-7.45-25.352-7.633-41.18-.375-32.39 12-60.12 26.577-60.12 1.822 0 3.61.413 5.343 1.199 1.733.786 3.412 1.946 5.02 3.438 1.605 1.493 3.524 4.225 4.96 6.344m3.877 7.325c1.228 2.665 3.121 7.851 3.648 10.399m2.036 7.141c.324 1.862.626 2.904.92 5m.981 6.903c.512 8.133.16 14.459.045 16.358m-.637 6.341c-.109 1.94-.425 4.338-.709 6.141-.148.937-.304 1.861-.468 2.771-.164.91-.335 1.806-.513 2.685-.178.879-.368 1.803-.57 2.754-.202.951-.416 1.928-.64 2.915-.225.987-.46 1.983-.705 2.971-.245.988-.501 1.968-.766 2.921-.265.954-.539 1.881-.821 2.765-.282.884-.573 1.725-.871 2.504-.298.779-.604 1.497-.916 2.136-.312.639-.632 1.199-.957 1.663"
         transform="translate(-226.63-392.06)"
         id="path3001"
         style="stroke:#363f44;stroke-opacity:1" />
      <path
         d="m326.4 555.82c-3.973 5.723-8.776-17.08-9.444-20.593-.668-3.509-1.186-7.191-1.538-11.01-.352-3.818-.536-7.771-.536-11.82 0-32.392 11.817-58.652 26.393-58.652 1.822 0 3.593.413 5.297 1.2 1.704.787 3.341 1.946 4.896 3.44m6.287 6.68c1.162 2.666 3.676 7.417 4.594 10.549m2.515 7.831c.605 2.441 1.141 5.782 1.468 8.2m.577 6.329c.825 7.709 1.252 15.851.521 21.765m-.956 6.577c-.48 6.306-.783 5.896-1.237 8.622m-1.224 6.64c-1.068 4.185-2.157 9.271-3.976 12.876"
         transform="translate(-194-391.69)"
         id="path3003"
         style="stroke:#363f44;stroke-opacity:1" />
      <path
         d="m326.63 555.24c-6.751 12.611-11.176-27.04-11.176-43.23 0-32.392 11.346-58.26 25.821-58.26 3.619 0 11.07 4.516 13.827 8.609m4.706 8.57c2.372 5.307 3.916 7.251 5.242 14.268m1.777 8.76c.769 10.32 1.282 23.07-.021 32.637m-.881 7.389c-1.326 7.02-3.745 14.586-6.117 19.893"
         transform="translate(-160.64-392.43)"
         id="path3005"
         style="stroke:#363f44;stroke-opacity:1" />
    </g>
    <g
       transform="translate(-259.99-392.06)"
       id="g3007"
       style="stroke:#363f44;stroke-opacity:1"
       stroke-width="2.3">
      <path
         d="m261 545.76c0 0 43.622-24.19 125.73-24.927 82.11-.733 119.14 24.56 119.14 24.56"
         id="path3009"
         style="stroke:#363f44;stroke-opacity:1" />
      <path
         d="m260.63 473.18c0 0 37.757 24.927 129.03 24.56 91.28-.367 118.77-26.76 116.94-24.56"
         id="path3011"
         style="stroke:#363f44;stroke-opacity:1"
         stroke-linejoin="round" />
    </g>
    <g
       transform="translate(-259.99-392.06)"
       id="g3013"
       style="stroke:#363f44;stroke-opacity:1"
       stroke-width="4.3">
      <path
         d="m307.03 519.95l7.906-12.183 6.739 12.05"
         id="path3015"
         style="stroke:#363f44;stroke-opacity:1" />
      <path
         d="m399.96 434.15l-12.183-7.906 12.05-6.739"
         id="path3017"
         style="stroke:#363f44;stroke-opacity:1" />
      <path
         d="m395.26 407.87l-12.183-7.906 12.05-6.739"
         id="path3019"
         style="stroke:#363f44;stroke-opacity:1" />
      <path
         d="m375.14 610.58l12.183 7.906-12.05 6.739"
         id="path3021"
         style="stroke:#363f44;stroke-opacity:1" />
      <path
         d="m375.4 584.01l12.183 7.906-12.05 6.739"
         id="path3023"
         style="stroke:#363f44;stroke-opacity:1" />
    </g>
  </g>
</svg>
