<svg xmlns="http://www.w3.org/2000/svg" width="385.14" height="70.302"><g style="line-height:125%;-inkscape-font-specification:Lato Bold" font-size="76.084" font-weight="bold" letter-spacing="0" word-spacing="0" fill="#fff" font-family="Lato"><path d="M0 56.569v-39.031h5.744c1.217 0 2.016.571 2.397 1.712l.609 2.891c.685-.761 1.395-1.458 2.13-2.092.761-.634 1.56-1.179 2.397-1.636.862-.456 1.775-.812 2.739-1.065.989-.279 2.067-.418 3.234-.418 2.46 0 4.476.672 6.049 2.016 1.598 1.319 2.79 3.081 3.576 5.288.609-1.293 1.369-2.397 2.283-3.31.913-.938 1.915-1.699 3.005-2.283 1.09-.583 2.244-1.014 3.462-1.293 1.243-.279 2.485-.418 3.728-.418 2.156 0 4.07.33 5.744.989 1.674.659 3.081 1.623 4.223 2.891 1.141 1.268 2.003 2.815 2.587 4.641.609 1.826.913 3.918.913 6.277v24.841h-9.396v-24.841c0-2.485-.545-4.349-1.636-5.592-1.091-1.268-2.688-1.902-4.793-1.902-.964 0-1.864.165-2.701.495-.812.33-1.534.812-2.168 1.446-.609.609-1.091 1.382-1.446 2.321-.355.938-.533 2.016-.533 3.234v24.841h-9.434v-24.841c0-2.612-.533-4.514-1.598-5.706-1.04-1.192-2.574-1.788-4.603-1.788-1.37 0-2.65.342-3.842 1.027-1.167.659-2.257 1.572-3.272 2.739v28.57h-9.396"/><path d="M89.276 56.569c-.888 0-1.572-.127-2.054-.38-.482-.279-.862-.824-1.141-1.636l-.837-2.777c-.989.888-1.953 1.674-2.891 2.359-.938.659-1.915 1.217-2.929 1.674-1.014.457-2.105.799-3.272 1.027-1.141.228-2.409.342-3.804.342-1.649 0-3.17-.216-4.565-.647-1.395-.457-2.6-1.129-3.614-2.016-1.014-.888-1.801-1.991-2.359-3.31s-.837-2.853-.837-4.603c0-1.471.38-2.917 1.141-4.337.786-1.446 2.08-2.739 3.88-3.88 1.801-1.167 4.197-2.13 7.19-2.891 2.993-.761 6.721-1.192 11.184-1.293v-2.283c0-2.612-.558-4.54-1.674-5.782-1.116-1.268-2.726-1.902-4.831-1.902-1.522 0-2.79.178-3.804.533-.989.355-1.864.761-2.625 1.217-.761.431-1.458.824-2.092 1.179-.609.355-1.293.533-2.054.533-.659 0-1.217-.165-1.674-.495-.457-.355-.824-.761-1.103-1.217l-1.674-3.005c4.489-4.109 9.891-6.163 16.206-6.163 2.283 0 4.324.38 6.125 1.141 1.801.736 3.322 1.775 4.565 3.119 1.243 1.319 2.181 2.904 2.815 4.755.659 1.851.989 3.88.989 6.087v24.651h-4.261m-14.038-5.858c1.927 0 3.589-.342 4.984-1.027 1.42-.71 2.802-1.775 4.147-3.196v-6.581c-2.739.127-5.034.368-6.886.723-1.826.33-3.297.761-4.413 1.293-1.116.533-1.915 1.154-2.397 1.864-.482.71-.723 1.484-.723 2.321 0 1.649.482 2.828 1.446 3.538.989.71 2.27 1.065 3.842 1.065"/><path d="M116.652 16.853c1.674 0 3.234.178 4.679.533 1.471.33 2.828.824 4.071 1.484h11.222v3.5c0 1.116-.672 1.801-2.016 2.054l-3.5.647c.254.659.444 1.357.571 2.092.152.736.228 1.509.228 2.321 0 1.927-.393 3.677-1.179 5.25-.761 1.547-1.826 2.866-3.196 3.956-1.37 1.091-2.993 1.94-4.869 2.549-1.851.583-3.855.875-6.011.875-1.471 0-2.904-.139-4.299-.418-1.217.736-1.826 1.56-1.826 2.473 0 .786.355 1.37 1.065 1.75.735.355 1.699.609 2.891.761 1.192.152 2.549.254 4.07.304 1.522.025 3.081.101 4.679.228 1.598.127 3.157.355 4.679.685 1.522.304 2.878.799 4.071 1.484 1.192.685 2.143 1.623 2.853 2.815.735 1.167 1.103 2.676 1.103 4.527 0 1.725-.431 3.398-1.293 5.022-.837 1.623-2.067 3.069-3.69 4.337-1.598 1.268-3.576 2.283-5.935 3.043-2.333.786-4.996 1.179-7.989 1.179-2.942 0-5.503-.292-7.684-.875-2.181-.558-3.994-1.319-5.44-2.283-1.446-.938-2.523-2.029-3.234-3.272-.71-1.243-1.065-2.536-1.065-3.88 0-1.801.545-3.322 1.636-4.565 1.116-1.243 2.625-2.232 4.527-2.967-1.014-.533-1.826-1.243-2.435-2.13-.609-.888-.913-2.054-.913-3.5 0-.583.101-1.179.304-1.788.203-.634.507-1.255.913-1.864.431-.609.964-1.179 1.598-1.712.659-.558 1.42-1.052 2.283-1.484-1.978-1.065-3.538-2.485-4.679-4.261-1.116-1.775-1.674-3.855-1.674-6.239 0-1.927.38-3.665 1.141-5.212.786-1.572 1.864-2.904 3.234-3.994 1.395-1.116 3.031-1.965 4.907-2.549 1.902-.583 3.969-.875 6.201-.875m10.614 41.466c0-.761-.228-1.37-.685-1.826-.457-.482-1.078-.862-1.864-1.141s-1.712-.482-2.777-.609c-1.04-.127-2.156-.216-3.348-.266-1.167-.076-2.384-.139-3.652-.19-1.243-.051-2.46-.152-3.652-.304-1.04.583-1.889 1.268-2.549 2.054-.634.786-.951 1.699-.951 2.739 0 .685.165 1.319.495 1.902.355.609.9 1.129 1.636 1.56.761.431 1.737.761 2.929.989 1.192.254 2.65.38 4.375.38 1.75 0 3.259-.139 4.527-.418 1.268-.254 2.308-.621 3.119-1.103.837-.457 1.446-1.014 1.826-1.674.38-.634.571-1.331.571-2.092m-10.614-22.217c1.167 0 2.181-.152 3.043-.457.862-.33 1.572-.773 2.13-1.331.583-.558 1.014-1.23 1.293-2.016.304-.786.456-1.648.457-2.587 0-1.927-.583-3.449-1.75-4.565-1.141-1.141-2.866-1.712-5.174-1.712-2.308 0-4.045.571-5.212 1.712-1.141 1.116-1.712 2.638-1.712 4.565 0 .913.139 1.763.418 2.549.304.786.735 1.471 1.293 2.054.583.558 1.306 1.002 2.168 1.331.888.304 1.902.457 3.043.457"/><path d="M142.509 56.569v-39.031h5.744c1.217 0 2.016.571 2.397 1.712l.647 3.081c.786-.812 1.61-1.547 2.473-2.206.888-.659 1.813-1.23 2.777-1.712.989-.482 2.042-.85 3.157-1.103 1.116-.254 2.333-.38 3.652-.38 2.13 0 4.02.368 5.668 1.103 1.648.71 3.018 1.725 4.109 3.043 1.116 1.293 1.953 2.853 2.511 4.679.583 1.801.875 3.792.875 5.973v24.841h-9.396v-24.841c0-2.384-.545-4.223-1.636-5.516-1.091-1.319-2.752-1.978-4.984-1.978-1.623 0-3.145.368-4.565 1.103-1.42.736-2.764 1.737-4.032 3.005v28.227h-9.396"/><path d="M202.079 16.929c2.46 0 4.73.393 6.81 1.179 2.08.786 3.868 1.94 5.364 3.462 1.496 1.496 2.663 3.348 3.5 5.554.862 2.181 1.293 4.679 1.293 7.494 0 1.42-.152 2.384-.457 2.891-.304.482-.888.723-1.75.723h-24.157c.152 2.004.507 3.741 1.065 5.212.558 1.446 1.293 2.65 2.206 3.614.913.938 1.991 1.649 3.234 2.13 1.268.457 2.663.685 4.185.685 1.522 0 2.828-.178 3.918-.533 1.116-.355 2.08-.748 2.891-1.179.837-.431 1.56-.824 2.168-1.179.634-.355 1.243-.533 1.826-.533.786 0 1.369.292 1.75.875l2.701 3.424c-1.04 1.217-2.206 2.244-3.5 3.081-1.293.812-2.65 1.471-4.071 1.978-1.395.482-2.828.824-4.299 1.027-1.446.203-2.853.304-4.223.304-2.714 0-5.237-.444-7.57-1.331-2.333-.913-4.362-2.244-6.087-3.994-1.725-1.775-3.081-3.956-4.071-6.543-.989-2.612-1.484-5.63-1.484-9.054 0-2.663.431-5.161 1.293-7.494.862-2.359 2.092-4.4 3.69-6.125 1.623-1.75 3.589-3.132 5.897-4.147 2.333-1.014 4.958-1.522 7.875-1.522m.19 6.733c-2.739 0-4.882.774-6.429 2.321-1.547 1.547-2.536 3.741-2.967 6.581h17.728c0-1.217-.178-2.359-.533-3.424-.33-1.091-.837-2.042-1.522-2.853-.685-.812-1.56-1.446-2.625-1.902-1.04-.482-2.257-.723-3.652-.723"/><path d="M222.23 56.569m16.358.609c-3.398 0-6.011-.951-7.837-2.853-1.801-1.927-2.701-4.578-2.701-7.951v-21.798h-3.994c-.507 0-.938-.165-1.293-.495-.355-.33-.533-.824-.533-1.484v-3.728l6.277-1.027 1.978-10.652c.127-.507.368-.9.723-1.179s.812-.418 1.37-.418h4.869v12.288h27.504v38.689h-9.396v-31.993h-18.108v21.151c0 1.217.292 2.168.875 2.853.609.685 1.433 1.027 2.473 1.027.583 0 1.065-.063 1.446-.19.406-.152.748-.304 1.027-.457.304-.152.571-.292.799-.418.228-.152.456-.228.685-.228.279 0 .507.076.685.228.178.127.368.33.571.609l2.815 4.565c-1.37 1.141-2.942 2.004-4.717 2.587-1.775.583-3.614.875-5.516.875m27.999-51.167c0 .812-.165 1.585-.495 2.321-.33.71-.774 1.332-1.331 1.864-.533.533-1.179.964-1.94 1.293-.736.304-1.522.457-2.359.457-.812 0-1.572-.152-2.283-.457-.71-.33-1.331-.761-1.864-1.293-.533-.533-.964-1.154-1.293-1.864-.304-.735-.457-1.509-.457-2.321 0-.837.152-1.61.457-2.321.33-.735.761-1.369 1.293-1.902.533-.558 1.154-.989 1.864-1.293.71-.33 1.471-.494 2.283-.495.837 0 1.623.165 2.359.495.761.304 1.408.736 1.94 1.293.558.533 1.002 1.167 1.331 1.902.33.71.494 1.484.495 2.321"/><path d="M302.428 25.793c-.279.355-.558.634-.837.837-.254.203-.634.304-1.141.304-.482 0-.951-.139-1.408-.418-.457-.304-1.002-.634-1.636-.989-.634-.38-1.395-.71-2.283-.989-.862-.304-1.94-.456-3.234-.457-1.649 0-3.094.304-4.337.913-1.243.583-2.283 1.433-3.119 2.549-.812 1.116-1.42 2.473-1.826 4.071-.406 1.572-.609 3.36-.609 5.364 0 2.08.216 3.931.647 5.554.457 1.623 1.103 2.993 1.94 4.109.837 1.091 1.851 1.927 3.043 2.511 1.192.558 2.536.837 4.032.837s2.701-.178 3.614-.533c.938-.38 1.725-.786 2.359-1.217.634-.456 1.179-.862 1.636-1.217.482-.38 1.014-.571 1.598-.571.761 0 1.331.292 1.712.875l2.701 3.424c-1.04 1.217-2.168 2.244-3.386 3.081-1.217.812-2.485 1.471-3.804 1.978-1.293.482-2.638.824-4.032 1.027-1.37.203-2.739.304-4.109.304-2.409 0-4.679-.444-6.81-1.331-2.13-.913-3.994-2.232-5.592-3.956-1.598-1.725-2.866-3.83-3.804-6.315-.913-2.511-1.37-5.364-1.37-8.559 0-2.866.406-5.516 1.217-7.951.837-2.46 2.054-4.578 3.652-6.353 1.598-1.801 3.576-3.208 5.935-4.223 2.359-1.014 5.072-1.522 8.141-1.522 2.917 0 5.465.469 7.646 1.408 2.206.938 4.185 2.283 5.935 4.032l-2.473 3.424"/><path d="M309.802 51.395c0-.786.139-1.534.418-2.244.304-.71.71-1.319 1.217-1.826.507-.507 1.116-.913 1.826-1.217.71-.304 1.471-.456 2.283-.457.812 0 1.56.152 2.244.457.71.304 1.319.71 1.826 1.217.533.507.951 1.116 1.255 1.826.304.71.456 1.458.457 2.244 0 .812-.152 1.572-.457 2.283-.304.685-.723 1.281-1.255 1.788-.507.507-1.116.9-1.826 1.179-.685.304-1.433.457-2.244.457-.812 0-1.572-.152-2.283-.457-.71-.279-1.319-.672-1.826-1.179-.507-.507-.913-1.103-1.217-1.788-.279-.71-.418-1.471-.418-2.283"/><path d="M339.04 17.537v39.031h-9.434v-39.031h9.434m1.293-11.375c0 .812-.165 1.572-.495 2.283-.33.71-.774 1.332-1.331 1.864-.533.533-1.167.964-1.902 1.293-.735.304-1.522.457-2.359.457-.812 0-1.585-.152-2.321-.457-.71-.33-1.331-.761-1.864-1.293-.533-.533-.964-1.154-1.293-1.864-.304-.71-.457-1.471-.457-2.283 0-.837.152-1.623.457-2.359.33-.735.761-1.369 1.293-1.902.533-.533 1.154-.951 1.864-1.255.735-.33 1.509-.494 2.321-.495.837 0 1.623.165 2.359.495.735.304 1.369.723 1.902 1.255.558.533 1.002 1.167 1.331 1.902.33.736.495 1.522.495 2.359"/><path d="M365.891 16.929c2.891 0 5.516.469 7.875 1.408 2.384.938 4.413 2.27 6.087 3.994 1.699 1.725 3.005 3.83 3.918 6.315.913 2.485 1.369 5.263 1.37 8.331 0 3.094-.457 5.884-1.37 8.369-.913 2.485-2.219 4.603-3.918 6.353-1.674 1.75-3.703 3.094-6.087 4.032-2.359.938-4.984 1.408-7.875 1.408-2.917 0-5.567-.469-7.951-1.408-2.384-.938-4.426-2.283-6.125-4.032-1.674-1.75-2.98-3.868-3.918-6.353-.913-2.485-1.37-5.275-1.37-8.369 0-3.069.457-5.846 1.37-8.331.938-2.485 2.244-4.59 3.918-6.315 1.699-1.725 3.741-3.056 6.125-3.994 2.384-.938 5.034-1.408 7.951-1.408m0 32.982c3.246 0 5.643-1.091 7.19-3.272 1.572-2.181 2.359-5.377 2.359-9.587s-.786-7.418-2.359-9.625c-1.547-2.206-3.944-3.31-7.19-3.31-3.297 0-5.744 1.116-7.342 3.348-1.572 2.206-2.359 5.402-2.359 9.587s.786 7.38 2.359 9.587c1.598 2.181 4.045 3.272 7.342 3.272"/></g></svg>