<?xml version="1.0" encoding="UTF-8" standalone="no"?>
<!-- Created with Inkscape (http://www.inkscape.org/) -->

<svg
   xmlns:dc="http://purl.org/dc/elements/1.1/"
   xmlns:cc="http://creativecommons.org/ns#"
   xmlns:rdf="http://www.w3.org/1999/02/22-rdf-syntax-ns#"
   xmlns:svg="http://www.w3.org/2000/svg"
   xmlns="http://www.w3.org/2000/svg"
   version="1.1"
   width="476.93192"
   height="81.662613"
   id="svg3951">
  <defs
     id="defs3953" />
  <metadata
     id="metadata3956">
    <rdf:RDF>
      <cc:Work
         rdf:about="">
        <dc:format>image/svg+xml</dc:format>
        <dc:type
           rdf:resource="http://purl.org/dc/dcmitype/StillImage" />
        <dc:title></dc:title>
      </cc:Work>
    </rdf:RDF>
  </metadata>
  <g
     transform="matrix(1.0040832,0,0,1.0040832,-314.52304,-492.57412)"
     id="text3998"
     style="font-size:76.08406067px;font-style:normal;font-variant:normal;font-weight:bold;font-stretch:normal;line-height:125%;letter-spacing:0px;word-spacing:0px;fill:#000000;fill-opacity:1;stroke:none;font-family:Lato;-inkscape-font-specification:Lato Bold">
    <path
       d="m 313.244,552.26819 0,-39.03112 5.74435,0 c 1.21733,3e-5 2.01621,0.57066 2.39665,1.71189 l 0.60867,2.89119 c 0.68474,-0.7608 1.39486,-1.45824 2.13035,-2.09231 0.76083,-0.634 1.55971,-1.17927 2.39665,-1.63581 0.86227,-0.45646 1.77528,-0.81152 2.73903,-1.06517 0.98907,-0.27894 2.06692,-0.41843 3.23357,-0.41847 2.46002,4e-5 4.47625,0.67212 6.04868,2.01623 1.59774,1.31883 2.78972,3.08144 3.57595,5.28784 0.60864,-1.29339 1.36948,-2.39661 2.28253,-3.30965 0.91297,-0.93834 1.91474,-1.69918 3.00532,-2.28253 1.09049,-0.58327 2.24443,-1.01441 3.46182,-1.29342 1.24266,-0.27894 2.48537,-0.41843 3.72812,-0.41847 2.15567,4e-5 4.07045,0.32974 5.74435,0.9891 1.67379,0.65943 3.08135,1.62316 4.22266,2.89119 1.14121,1.2681 2.00349,2.81514 2.58686,4.64113 0.60861,1.82604 0.91295,3.91835 0.91301,6.27693 l 0,24.84145 -9.39638,0 0,-24.84145 c -5e-5,-2.48538 -0.54532,-4.34944 -1.63581,-5.59218 -1.09059,-1.26803 -2.68835,-1.90206 -4.7933,-1.9021 -0.96377,4e-5 -1.8641,0.16488 -2.70098,0.49455 -0.8116,0.32973 -1.5344,0.81159 -2.1684,1.4456 -0.60871,0.6087 -1.09057,1.38222 -1.44559,2.32056 -0.3551,0.9384 -0.53263,2.01625 -0.53259,3.23357 l 0,24.84145 -9.43443,0 0,-24.84145 c -2e-5,-2.61219 -0.53261,-4.51429 -1.59776,-5.7063 -1.03984,-1.19195 -2.5742,-1.78794 -4.60309,-1.78798 -1.36953,4e-5 -2.65028,0.34241 -3.84224,1.02714 -1.16664,0.65942 -2.25718,1.57243 -3.27162,2.73902 l 0,28.56957 -9.39638,0"
       id="path4667"
       style="fill:#000000" />
    <path
       d="m 402.52033,552.26819 c -0.88768,0 -1.57244,-0.12681 -2.05427,-0.38042 -0.4819,-0.27898 -0.86232,-0.82424 -1.14126,-1.63581 l -0.83693,-2.77707 c -0.98912,0.88765 -1.95285,1.67386 -2.89119,2.35861 -0.9384,0.6594 -1.91481,1.21734 -2.92924,1.67385 -1.01447,0.4565 -2.10501,0.79888 -3.27161,1.02713 -1.14128,0.22825 -2.40935,0.34238 -3.80421,0.34238 -1.6485,0 -3.17018,-0.21557 -4.56504,-0.64671 -1.39488,-0.45651 -2.59955,-1.12858 -3.61399,-2.01623 -1.01446,-0.88765 -1.80066,-1.99086 -2.35861,-3.30966 -0.55795,-1.31878 -0.83693,-2.85314 -0.83692,-4.60308 -1e-5,-1.47095 0.38041,-2.91655 1.14126,-4.33679 0.7862,-1.44559 2.07962,-2.73901 3.88028,-3.88029 1.80065,-1.1666 4.1973,-2.13034 7.18995,-2.8912 2.99262,-0.76082 6.72074,-1.19196 11.18435,-1.29343 l 0,-2.28252 c -2e-5,-2.61219 -0.55797,-4.53965 -1.67384,-5.78239 -1.11593,-1.26803 -2.72637,-1.90206 -4.83134,-1.9021 -1.5217,4e-5 -2.78977,0.17756 -3.80421,0.53259 -0.9891,0.35509 -1.86407,0.76087 -2.6249,1.21735 -0.76085,0.43117 -1.45828,0.82427 -2.09231,1.1793 -0.60868,0.35509 -1.29343,0.53262 -2.05427,0.53259 -0.6594,3e-5 -1.21735,-0.16482 -1.67385,-0.49455 -0.45651,-0.35503 -0.82425,-0.76081 -1.10321,-1.21734 l -1.67385,-3.00532 c 4.48895,-4.10851 9.89091,-6.16277 16.2059,-6.16281 2.2825,4e-5 4.32409,0.38046 6.12477,1.14126 1.80063,0.73551 3.32231,1.77533 4.56504,3.11944 1.24268,1.31883 2.18104,2.90391 2.81511,4.75526 0.65936,1.85141 0.98906,3.88031 0.98909,6.08672 l 0,24.65124 -4.2607,0 m -14.03751,-5.85847 c 1.92744,0 3.58861,-0.34238 4.9835,-1.02714 1.42022,-0.71011 2.80241,-1.77529 4.14658,-3.19553 l 0,-6.58127 c -2.73904,0.12682 -5.03424,0.36776 -6.8856,0.7228 -1.82604,0.32971 -3.29699,0.76085 -4.41288,1.29343 -1.11591,0.5326 -1.91479,1.15395 -2.39665,1.86406 -0.48187,0.71013 -0.72281,1.48365 -0.72279,2.32056 -2e-5,1.6485 0.48185,2.8278 1.44559,3.53791 0.98908,0.71012 2.26983,1.06518 3.84225,1.06518"
       id="path4669"
       style="fill:#000000" />
    <path
       d="m 429.89632,512.55231 c 1.67383,4e-5 3.23355,0.17757 4.67917,0.53259 1.47094,0.32973 2.82777,0.82428 4.0705,1.48364 l 11.2224,0 0,3.49986 c -4e-5,1.11594 -0.67212,1.80069 -2.01623,2.05427 l -3.49987,0.64672 c 0.25358,0.65942 0.44379,1.35686 0.57063,2.09231 0.15214,0.73551 0.22822,1.50903 0.22826,2.32056 -4e-5,1.92749 -0.39314,3.67742 -1.17931,5.2498 -0.76087,1.54707 -1.82605,2.86585 -3.19553,3.95637 -1.36954,1.09056 -2.99266,1.94016 -4.86938,2.54882 -1.8514,0.58333 -3.85494,0.87498 -6.01064,0.87497 -1.47097,10e-6 -2.90389,-0.13948 -4.29875,-0.41847 -1.21736,0.7355 -1.82603,1.55974 -1.82601,2.47274 -2e-5,0.78621 0.35504,1.36952 1.06517,1.74993 0.73547,0.35507 1.6992,0.60868 2.8912,0.76084 1.19196,0.15218 2.54879,0.25362 4.07049,0.30434 1.52166,0.0254 3.08138,0.10145 4.67917,0.22825 1.59774,0.12682 3.15746,0.35507 4.67917,0.68476 1.52165,0.30434 2.87848,0.79889 4.0705,1.48363 1.19195,0.68477 2.143,1.62314 2.85315,2.81511 0.73544,1.16663 1.10318,2.67563 1.10322,4.52701 -4e-5,1.72457 -0.43118,3.39841 -1.29343,5.02154 -0.83696,1.62312 -2.06698,3.06872 -3.69007,4.3368 -1.5978,1.26805 -3.57598,2.28251 -5.93456,3.04336 -2.33327,0.78619 -4.99621,1.17929 -7.98883,1.1793 -2.94193,-10e-6 -5.50342,-0.29167 -7.68449,-0.87497 -2.18108,-0.55796 -3.99442,-1.3188 -5.44001,-2.28252 -1.4456,-0.93838 -2.52346,-2.02891 -3.23357,-3.27161 -0.71012,-1.24271 -1.06518,-2.53614 -1.06518,-3.88029 0,-1.80066 0.54527,-3.32234 1.63581,-4.56504 1.1159,-1.24271 2.62489,-2.2318 4.527,-2.96728 -1.01446,-0.53258 -1.82602,-1.2427 -2.43469,-2.13035 -0.60868,-0.88764 -0.91301,-2.05427 -0.91301,-3.49987 0,-0.5833 0.10144,-1.17929 0.30434,-1.78798 0.20288,-0.63402 0.50722,-1.25537 0.91301,-1.86406 0.43113,-0.60865 0.96372,-1.17928 1.59776,-1.71189 0.65939,-0.55793 1.42023,-1.05248 2.28253,-1.48364 -1.9782,-1.06516 -3.53792,-2.48539 -4.67917,-4.2607 -1.11591,-1.77528 -1.67386,-3.85491 -1.67385,-6.2389 -1e-5,-1.92743 0.38041,-3.66468 1.14126,-5.21176 0.78619,-1.57237 1.86405,-2.90384 3.23357,-3.99441 1.39486,-1.11586 3.03067,-1.96547 4.90742,-2.54881 1.90209,-0.58328 3.96904,-0.87493 6.20085,-0.87497 m 10.61373,41.46581 c -3e-5,-0.76084 -0.22828,-1.36951 -0.68476,-1.82602 -0.45653,-0.48186 -1.07788,-0.86228 -1.86406,-1.14126 -0.78623,-0.27897 -1.71191,-0.48186 -2.77707,-0.60867 -1.03983,-0.1268 -2.15573,-0.21557 -3.34769,-0.26629 -1.16665,-0.0761 -2.38399,-0.13949 -3.65204,-0.19021 -1.24272,-0.0507 -2.46007,-0.15217 -3.65203,-0.30434 -1.03983,0.58331 -1.88944,1.26807 -2.54882,2.05427 -0.63404,0.7862 -0.95106,1.69921 -0.95105,2.73903 -1e-5,0.68475 0.16484,1.31878 0.49455,1.9021 0.35504,0.60867 0.90031,1.12857 1.6358,1.55972 0.76083,0.43114 1.73724,0.76084 2.92924,0.98909 1.19197,0.25361 2.65024,0.38042 4.37483,0.38042 1.74991,0 3.25891,-0.13949 4.527,-0.41846 1.26805,-0.25362 2.30786,-0.62136 3.11945,-1.10322 0.8369,-0.45651 1.44557,-1.01446 1.82602,-1.67385 0.38039,-0.63403 0.5706,-1.33147 0.57063,-2.09231 m -10.61373,-22.21654 c 1.1666,2e-5 2.18106,-0.15215 3.04336,-0.45651 0.86227,-0.32967 1.57239,-0.7735 2.13036,-1.33147 0.58328,-0.55793 1.01443,-1.23 1.29343,-2.01623 0.30431,-0.78617 0.45648,-1.64846 0.4565,-2.58685 -2e-5,-1.92744 -0.58333,-3.44912 -1.74993,-4.56505 -1.14129,-1.14123 -2.86586,-1.71186 -5.17372,-1.71189 -2.3079,3e-5 -4.04515,0.57066 -5.21176,1.71189 -1.14127,1.11593 -1.7119,2.63761 -1.71189,4.56505 -10e-6,0.91303 0.13948,1.76263 0.41847,2.54881 0.30432,0.78623 0.73546,1.47098 1.29342,2.05427 0.5833,0.55797 1.3061,1.0018 2.1684,1.33147 0.88763,0.30436 1.90208,0.45653 3.04336,0.45651"
       id="path4671"
       style="fill:#000000" />
    <path
       d="m 455.75302,552.26819 0,-39.03112 5.74435,0 c 1.21733,3e-5 2.01621,0.57066 2.39664,1.71189 l 0.64672,3.0814 c 0.78619,-0.81153 1.61043,-1.54701 2.47273,-2.20644 0.88763,-0.65935 1.81332,-1.22998 2.77707,-1.71189 0.98907,-0.48183 2.04157,-0.84956 3.15749,-1.10322 1.11587,-0.25357 2.33322,-0.38038 3.65203,-0.38042 2.13033,4e-5 4.01975,0.36778 5.66827,1.10322 1.64845,0.71016 3.01796,1.72461 4.10853,3.04336 1.11587,1.29347 1.95279,2.85319 2.51078,4.67917 0.58327,1.80069 0.87493,3.79155 0.87497,5.9726 l 0,24.84145 -9.39639,0 0,-24.84145 c -3e-5,-2.38394 -0.54529,-4.22263 -1.6358,-5.51609 -1.09057,-1.31876 -2.75174,-1.97815 -4.98351,-1.97819 -1.62315,4e-5 -3.14483,0.36777 -4.56504,1.10322 -1.42026,0.73551 -2.76441,1.73728 -4.03246,3.00532 l 0,28.22719 -9.39638,0"
       id="path4673"
       style="fill:#000000" />
    <path
       d="m 515.32326,512.62839 c 2.46003,4e-5 4.72987,0.39314 6.80953,1.17931 2.0796,0.78624 3.86757,1.94018 5.36392,3.46182 1.49629,1.49635 2.66291,3.34773 3.49987,5.55414 0.86225,2.1811 1.29339,4.67919 1.29343,7.49428 -4e-5,1.42025 -0.15221,2.38398 -0.4565,2.89119 -0.30438,0.48189 -0.88769,0.72282 -1.74994,0.7228 l -24.15669,0 c 0.15216,2.00356 0.50722,3.74081 1.06518,5.21176 0.55794,1.44561 1.29341,2.65027 2.20644,3.61399 0.91299,0.93838 1.99085,1.6485 3.23357,2.13035 1.26805,0.45652 2.66292,0.68477 4.18462,0.68476 1.52166,10e-6 2.82777,-0.17752 3.91833,-0.53259 1.11587,-0.35505 2.07961,-0.74815 2.8912,-1.1793 0.83689,-0.43113 1.55969,-0.82423 2.16839,-1.1793 0.634,-0.35505 1.24268,-0.53258 1.82602,-0.53259 0.78617,10e-6 1.36948,0.29166 1.74993,0.87497 l 2.70099,3.42378 c -1.03985,1.21735 -2.20648,2.24448 -3.49987,3.0814 -1.29346,0.81157 -2.65029,1.47096 -4.0705,1.97819 -1.3949,0.48186 -2.82781,0.82424 -4.29875,1.02713 -1.44562,0.20289 -2.85317,0.30434 -4.22266,0.30434 -2.71368,0 -5.23714,-0.44382 -7.57036,-1.33147 -2.33326,-0.91301 -4.36217,-2.24448 -6.08673,-3.99442 -1.72458,-1.77528 -3.08141,-3.95636 -4.0705,-6.54322 -0.98909,-2.61221 -1.48364,-5.63021 -1.48364,-9.05401 0,-2.66292 0.43114,-5.16101 1.29343,-7.49428 0.86228,-2.35857 2.09231,-4.40016 3.69008,-6.12476 1.62312,-1.7499 3.58862,-3.13209 5.89651,-4.14659 2.33323,-1.01441 4.95813,-1.52164 7.8747,-1.52168 m 0.19021,6.73344 c -2.73904,4e-5 -4.88207,0.77356 -6.4291,2.32057 -1.54705,1.54707 -2.53615,3.74082 -2.96728,6.58127 l 17.72759,0 c -3e-5,-1.21732 -0.17756,-2.35858 -0.53259,-3.42379 -0.32973,-1.09051 -0.83695,-2.04155 -1.52168,-2.85315 -0.68478,-0.81153 -1.55975,-1.44556 -2.6249,-1.9021 -1.03984,-0.48183 -2.25718,-0.72276 -3.65204,-0.7228"
       id="path4675"
       style="fill:#000000" />
    <path
       d="m 535.47367,552.26819 0,0 m 16.35807,0.60867 c -3.39844,0 -6.01065,-0.95105 -7.83666,-2.85315 -1.80066,-1.92746 -2.70099,-4.57772 -2.70098,-7.95079 l 0,-21.79808 -3.99442,0 c -0.50723,3e-5 -0.93837,-0.16482 -1.29343,-0.49455 -0.35506,-0.32966 -0.53259,-0.82421 -0.53258,-1.48363 l 0,-3.72812 6.27693,-1.02714 1.97819,-10.65177 c 0.12679,-0.50717 0.36773,-0.90027 0.7228,-1.1793 0.35504,-0.27892 0.81155,-0.41841 1.36951,-0.41846 l 4.86938,0 0,12.28757 27.50439,0 0,38.68875 -9.39639,0 0,-31.99335 -18.108,0 0,21.15137 c -2e-5,1.21735 0.29164,2.1684 0.87496,2.85315 0.60866,0.68477 1.4329,1.02714 2.47274,1.02714 0.58329,0 1.06515,-0.0634 1.44559,-0.19021 0.40576,-0.15216 0.74814,-0.30433 1.02714,-0.45651 0.30431,-0.15216 0.57061,-0.29165 0.79888,-0.41846 0.22823,-0.15216 0.45648,-0.22824 0.68476,-0.22825 0.27895,10e-6 0.5072,0.0761 0.68475,0.22825 0.17751,0.12681 0.36772,0.32971 0.57063,0.60867 l 2.81512,4.56505 c -1.36954,1.14126 -2.94195,2.00354 -4.71722,2.58685 -1.77531,0.58332 -3.61401,0.87497 -5.51609,0.87497 m 27.99893,-51.16653 c -4e-5,0.81161 -0.16489,1.58513 -0.49454,2.32056 -0.32975,0.71017 -0.77357,1.33152 -1.33147,1.86406 -0.53264,0.53264 -1.17935,0.96378 -1.94015,1.29343 -0.73552,0.30438 -1.52172,0.45655 -2.3586,0.45651 -0.81161,4e-5 -1.57245,-0.15213 -2.28253,-0.45651 -0.71015,-0.32965 -1.3315,-0.76079 -1.86405,-1.29343 -0.53263,-0.53254 -0.96377,-1.15389 -1.29343,-1.86406 -0.30437,-0.73543 -0.45654,-1.50895 -0.45651,-2.32056 -3e-5,-0.83687 0.15214,-1.61039 0.45651,-2.32056 0.32966,-0.73543 0.7608,-1.36946 1.29343,-1.90211 0.53255,-0.55789 1.1539,-0.98903 1.86405,-1.29342 0.71008,-0.32965 1.47092,-0.49449 2.28253,-0.49455 0.83688,6e-5 1.62308,0.1649 2.3586,0.49455 0.7608,0.30439 1.40751,0.73553 1.94015,1.29342 0.5579,0.53265 1.00172,1.16668 1.33147,1.90211 0.32965,0.71017 0.4945,1.48369 0.49454,2.32056"
       id="path4677"
       style="fill:#000000" />
    <path
       d="m 615.67221,521.49219 c -0.27901,0.35509 -0.55798,0.63406 -0.83692,0.83692 -0.25365,0.20292 -0.63407,0.30437 -1.14127,0.30434 -0.48189,3e-5 -0.95108,-0.13946 -1.40755,-0.41847 -0.45653,-0.3043 -1.0018,-0.634 -1.63581,-0.98909 -0.63406,-0.38039 -1.3949,-0.71008 -2.28252,-0.98909 -0.86231,-0.3043 -1.94017,-0.45647 -3.23357,-0.45651 -1.64851,4e-5 -3.09411,0.30437 -4.33679,0.91301 -1.24273,0.58335 -2.28254,1.43295 -3.11945,2.54882 -0.81158,1.11593 -1.42025,2.47276 -1.82602,4.0705 -0.40579,1.57242 -0.60868,3.3604 -0.60867,5.36392 -10e-6,2.07965 0.21556,3.93103 0.64671,5.55414 0.4565,1.62314 1.10321,2.99265 1.94015,4.10854 0.83691,1.09055 1.85136,1.92747 3.04336,2.51077 1.19197,0.55796 2.53612,0.83693 4.03246,0.83693 1.49629,0 2.70096,-0.17753 3.61399,-0.53259 0.93834,-0.38041 1.72454,-0.7862 2.3586,-1.21735 0.63401,-0.45649 1.17928,-0.86227 1.63581,-1.21734 0.48184,-0.38041 1.01443,-0.57062 1.59777,-0.57063 0.76081,10e-6 1.33144,0.29166 1.71189,0.87497 l 2.70098,3.42378 c -1.03985,1.21735 -2.16843,2.24448 -3.38574,3.0814 -1.21737,0.81157 -2.48544,1.47096 -3.8042,1.97819 -1.29346,0.48186 -2.63761,0.82424 -4.03246,1.02713 -1.36953,0.20289 -2.73904,0.30434 -4.10854,0.30434 -2.40934,0 -4.67918,-0.44382 -6.80952,-1.33147 -2.13036,-0.91301 -3.99442,-2.2318 -5.59218,-3.95637 -1.59777,-1.72457 -2.86584,-3.82956 -3.8042,-6.31498 -0.91301,-2.51076 -1.36952,-5.36391 -1.36951,-8.55946 -10e-6,-2.86581 0.40578,-5.51607 1.21734,-7.95078 0.83692,-2.46002 2.05427,-4.57769 3.65204,-6.35302 1.59775,-1.80062 3.57594,-3.20817 5.93455,-4.22267 2.35859,-1.01441 5.07226,-1.52164 8.141,-1.52168 2.91653,4e-5 5.46534,0.46923 7.64645,1.40756 2.2064,0.93841 4.18459,2.28256 5.93455,4.03245 l -2.47273,3.42379"
       id="path4679"
       style="fill:#000000" />
    <path
       d="m 623.04643,547.09447 c -10e-6,-0.78619 0.13948,-1.53435 0.41846,-2.24448 0.30433,-0.71011 0.71011,-1.31878 1.21734,-1.82601 0.50722,-0.50722 1.1159,-0.913 1.82602,-1.21735 0.71011,-0.30433 1.47095,-0.45649 2.28252,-0.4565 0.81156,10e-6 1.55971,0.15217 2.24448,0.4565 0.71011,0.30435 1.31878,0.71013 1.82602,1.21735 0.53257,0.50723 0.95104,1.1159 1.25539,1.82601 0.30432,0.71013 0.45649,1.45829 0.4565,2.24448 -10e-6,0.81157 -0.15218,1.57241 -0.4565,2.28252 -0.30435,0.68476 -0.72282,1.28075 -1.25539,1.78798 -0.50724,0.50723 -1.11591,0.90033 -1.82602,1.1793 -0.68477,0.30434 -1.43292,0.45651 -2.24448,0.45651 -0.81157,0 -1.57241,-0.15217 -2.28252,-0.45651 -0.71012,-0.27897 -1.3188,-0.67207 -1.82602,-1.1793 -0.50723,-0.50723 -0.91301,-1.10322 -1.21734,-1.78798 -0.27898,-0.71011 -0.41847,-1.47095 -0.41846,-2.28252"
       id="path4681"
       style="fill:#000000" />
    <path
       d="m 652.28409,513.23707 0,39.03112 -9.43442,0 0,-39.03112 9.43442,0 m 1.29343,-11.37457 c -1e-5,0.81161 -0.16486,1.57245 -0.49454,2.28252 -0.32972,0.71017 -0.77354,1.33152 -1.33148,1.86406 -0.5326,0.53263 -1.16663,0.96378 -1.9021,1.29343 -0.73549,0.30438 -1.52169,0.45655 -2.3586,0.4565 -0.81158,5e-5 -1.5851,-0.15212 -2.32057,-0.4565 -0.71012,-0.32965 -1.33147,-0.7608 -1.86406,-1.29343 -0.53259,-0.53254 -0.96373,-1.15389 -1.29343,-1.86406 -0.30434,-0.71007 -0.4565,-1.47091 -0.4565,-2.28252 0,-0.83688 0.15216,-1.62308 0.4565,-2.35861 0.3297,-0.73542 0.76084,-1.36946 1.29343,-1.9021 0.53259,-0.53253 1.15394,-0.95099 1.86406,-1.25539 0.73547,-0.32964 1.50899,-0.49449 2.32057,-0.49454 0.83691,5e-5 1.62311,0.1649 2.3586,0.49454 0.73547,0.3044 1.3695,0.72286 1.9021,1.25539 0.55794,0.53264 1.00176,1.16668 1.33148,1.9021 0.32968,0.73553 0.49453,1.52173 0.49454,2.35861"
       id="path4683"
       style="fill:#000000" />
    <path
       d="m 679.13462,512.62839 c 2.89117,4e-5 5.51607,0.46923 7.8747,1.40756 2.38394,0.93841 4.41284,2.26988 6.08673,3.99441 1.69917,1.72461 3.00528,3.8296 3.91833,6.31498 0.91296,2.48544 1.36947,5.2625 1.36951,8.3312 -4e-5,3.0941 -0.45655,5.88385 -1.36951,8.36925 -0.91305,2.48542 -2.21916,4.60309 -3.91833,6.35302 -1.67389,1.74994 -3.70279,3.09409 -6.08673,4.03245 -2.35863,0.93837 -4.98353,1.40756 -7.8747,1.40756 -2.91657,0 -5.56683,-0.46919 -7.95078,-1.40756 -2.38398,-0.93836 -4.42557,-2.28251 -6.12477,-4.03245 -1.67386,-1.74993 -2.97996,-3.8676 -3.91833,-6.35302 -0.91301,-2.4854 -1.36951,-5.27515 -1.36951,-8.36925 0,-3.0687 0.4565,-5.84576 1.36951,-8.3312 0.93837,-2.48538 2.24447,-4.59037 3.91833,-6.31498 1.6992,-1.72453 3.74079,-3.056 6.12477,-3.99441 2.38395,-0.93833 5.03421,-1.40752 7.95078,-1.40756 m 0,32.98244 c 3.24623,1e-5 5.64288,-1.09053 7.18995,-3.27161 1.57237,-2.18107 2.35857,-5.37659 2.3586,-9.58659 -3e-5,-4.20996 -0.78623,-7.41817 -2.3586,-9.62464 -1.54707,-2.2064 -3.94372,-3.30962 -7.18995,-3.30965 -3.29699,3e-5 -5.74436,1.11593 -7.34211,3.3477 -1.57242,2.20646 -2.35862,5.40199 -2.35861,9.58659 -10e-6,4.18464 0.78619,7.38016 2.35861,9.58659 1.59775,2.18108 4.04512,3.27162 7.34211,3.27161"
       id="path4685"
       style="fill:#000000" />
  </g>
  <g
     transform="matrix(0.34549672,0,0,0.34549672,391.29728,0.34580431)"
     id="g3163"
     style="fill:none;stroke:#000000;stroke-linecap:round;stroke-opacity:1">
    <g
       id="g3165"
       style="stroke:#000000;stroke-width:4.30000019;stroke-linejoin:round;stroke-opacity:1">
      <path
         d="m 345.62,482.44 c -8.438,-3.203 -15.23,-5.073 -22.99,-9.623 m -4.904,-3.37 c -6.154,-4.172 -12.07,-10.475 -14.502,-16.495 -1.113,-2.811 -1.698,-5.722 -1.698,-8.703 0,-23.85 37.425,-43.18 83.59,-43.18 46.17,0 83.59,19.334 83.59,43.18 -1.697,23.4 -31.622,35.14 -49.904,39.35 m -8.304,2.01 c -10.376,1.465 -16.08,1.82 -25.382,1.825 m -8.944,-0.283 c -8.436,-0.601 -16.756,-1.036 -24.302,-3.187"
         transform="translate(-257.21,-393.07)"
         id="path3167"
         style="stroke:#000000;stroke-opacity:1" />
      <path
         d="m 429.56736,448.79605 a 42.17387,22.728432 0 1 1 -84.34774,0 42.17387,22.728432 0 1 1 84.34774,0 z"
         transform="translate(-259.99,-392.06)"
         id="path3169"
         style="stroke:#000000;stroke-opacity:1" />
      <path
         d="m 430.83006,571.52954 a 42.42641,21.718279 0 1 1 -84.85281,0 42.42641,21.718279 0 1 1 84.85281,0 z"
         transform="translate(-261.09,-393.53)"
         id="path3171"
         style="stroke:#000000;stroke-opacity:1" />
      <path
         d="m 324.64,549.64 c 7.531,-4.608 14.504,-7.225 22.439,-9.556 m 8.322,-2.197 c 8.272,-1.816 16.262,-2.987 24.08,-3.492 m 9.09,-0.362 c 2.86,0 5.685,0.075 8.47,0.221 2.785,0.146 5.529,0.364 8.226,0.65 2.697,0.286 5.345,0.639 7.939,1.057 m 7.611,1.442 c 9.911,2.17 18.837,5.311 26.333,9.191 7.496,3.881 13.562,8.502 17.754,13.633 4.192,5.131 6.51,10.773 6.51,16.694 0,23.687 -37.09,42.889 -82.85,42.889 -45.754,0 -82.85,-19.2 -82.85,-42.889 0.934,-10.695 5.325,-16.762 13.02,-22.73"
         transform="translate(-261.09,-393.89)"
         id="path3173"
         style="stroke:#000000;stroke-opacity:1" />
      <path
         d="m 322.62,553.87 c -2.388,-5.307 -4.321,-11.626 -5.656,-18.643 -1.336,-7.02 -2.074,-14.732 -2.074,-22.83 0,-32.392 11.817,-58.652 26.393,-58.652 7.288,0 13.887,6.565 18.663,17.18 1.194,2.653 2.641,6.797 3.589,9.917 m 2.159,8.313 c 0.334,1.754 0.348,3.072 0.582,5.01 m 0.864,6.41 c 0.352,3.818 0.536,7.771 0.536,11.82 0,2.025 -0.042,4.03 -0.126,6.01 m -0.378,5.857 c -0.168,1.921 -0.377,3.809 -0.628,5.654 m -1.266,7.866 c -1.063,4.738 -1.07,6.382 -2.736,11.424 m -1.873,4.485 c -0.511,0.969 -1.34,3.57 -1.901,3.942 -1.121,0.745 -2.335,0.091 -3.614,-2.781"
         transform="translate(-259.99,-392.06)"
         id="path3175"
         style="stroke:#000000;stroke-opacity:1" />
      <path
         d="m 321.79,554.86 c -5.143,-12.997 -7.45,-25.352 -7.633,-41.18 -0.375,-32.39 12,-60.12 26.577,-60.12 1.822,0 3.61,0.413 5.343,1.199 1.733,0.786 3.412,1.946 5.02,3.438 1.605,1.493 3.524,4.225 4.96,6.344 m 3.877,7.325 c 1.228,2.665 3.121,7.851 3.648,10.399 m 2.036,7.141 c 0.324,1.862 0.626,2.904 0.92,5 m 0.981,6.903 c 0.512,8.133 0.16,14.459 0.045,16.358 m -0.637,6.341 c -0.109,1.94 -0.425,4.338 -0.709,6.141 -0.148,0.937 -0.304,1.861 -0.468,2.771 -0.164,0.91 -0.335,1.806 -0.513,2.685 -0.178,0.879 -0.368,1.803 -0.57,2.754 -0.202,0.951 -0.416,1.928 -0.64,2.915 -0.225,0.987 -0.46,1.983 -0.705,2.971 -0.245,0.988 -0.501,1.968 -0.766,2.921 -0.265,0.954 -0.539,1.881 -0.821,2.765 -0.282,0.884 -0.573,1.725 -0.871,2.504 -0.298,0.779 -0.604,1.497 -0.916,2.136 -0.312,0.639 -0.632,1.199 -0.957,1.663"
         transform="translate(-226.63,-392.06)"
         id="path3177"
         style="stroke:#000000;stroke-opacity:1" />
      <path
         d="m 326.4,555.82 c -3.973,5.723 -8.776,-17.08 -9.444,-20.593 -0.668,-3.509 -1.186,-7.191 -1.538,-11.01 -0.352,-3.818 -0.536,-7.771 -0.536,-11.82 0,-32.392 11.817,-58.652 26.393,-58.652 1.822,0 3.593,0.413 5.297,1.2 1.704,0.787 3.341,1.946 4.896,3.44 m 6.287,6.68 c 1.162,2.666 3.676,7.417 4.594,10.549 m 2.515,7.831 c 0.605,2.441 1.141,5.782 1.468,8.2 m 0.577,6.329 c 0.825,7.709 1.252,15.851 0.521,21.765 m -0.956,6.577 c -0.48,6.306 -0.783,5.896 -1.237,8.622 m -1.224,6.64 c -1.068,4.185 -2.157,9.271 -3.976,12.876"
         transform="translate(-194,-391.69)"
         id="path3179"
         style="stroke:#000000;stroke-opacity:1" />
      <path
         d="m 326.63,555.24 c -6.751,12.611 -11.176,-27.04 -11.176,-43.23 0,-32.392 11.346,-58.26 25.821,-58.26 3.619,0 11.07,4.516 13.827,8.609 m 4.706,8.57 c 2.372,5.307 3.916,7.251 5.242,14.268 m 1.777,8.76 c 0.769,10.32 1.282,23.07 -0.021,32.637 m -0.881,7.389 c -1.326,7.02 -3.745,14.586 -6.117,19.893"
         transform="translate(-160.64,-392.43)"
         id="path3181"
         style="stroke:#000000;stroke-opacity:1" />
    </g>
    <g
       transform="translate(-259.99,-392.06)"
       id="g3183"
       style="stroke:#000000;stroke-width:2.29999995;stroke-opacity:1">
      <path
         d="m 261,545.76 c 0,0 43.622,-24.19 125.73,-24.927 82.11,-0.733 119.14,24.56 119.14,24.56"
         id="path3185"
         style="stroke:#000000;stroke-opacity:1" />
      <path
         d="m 260.63,473.18 c 0,0 37.757,24.927 129.03,24.56 91.28,-0.367 118.77,-26.76 116.94,-24.56"
         id="path3187"
         style="stroke:#000000;stroke-linejoin:round;stroke-opacity:1" />
    </g>
    <g
       transform="translate(-259.99,-392.06)"
       id="g3189"
       style="stroke:#000000;stroke-width:4.30000019;stroke-opacity:1">
      <path
         d="m 307.03,519.95 7.906,-12.183 6.739,12.05"
         id="path3191"
         style="stroke:#000000;stroke-opacity:1" />
      <path
         d="m 399.96,434.15 -12.183,-7.906 12.05,-6.739"
         id="path3193"
         style="stroke:#000000;stroke-opacity:1" />
      <path
         d="m 395.26,407.87 -12.183,-7.906 12.05,-6.739"
         id="path3195"
         style="stroke:#000000;stroke-opacity:1" />
      <path
         d="m 375.14,610.58 12.183,7.906 -12.05,6.739"
         id="path3197"
         style="stroke:#000000;stroke-opacity:1" />
      <path
         d="m 375.4,584.01 12.183,7.906 -12.05,6.739"
         id="path3199"
         style="stroke:#000000;stroke-opacity:1" />
    </g>
  </g>
</svg>
